REM DIRINDEX 1\2\6,1\2\7,1\2\8,1\2\9,1\3\10,1\3\11,1\4\12,1\4\13,1\4\14,1\5\15,1\5\16,1\5\17
REM DIRNAME cjc020,folder01,folder02,folder03,folder04,folder05,folder06,folder07,folder08,folder09,folder10,folder11,folder12,folder13,folder14,folder15,folder16
TITLE ""
FILE "1900_3_047 sec08_0765_0781.mp3" MP3
  TRACK 01 AUDIO
    TITLE "0:"
    INDEX 01 00:00:00
  TRACK 02 AUDIO
    TITLE "17:cjc020_7503"
    INDEX 01 00:00:19
  TRACK 03 AUDIO
    TITLE "0:"
    INDEX 01 00:01:19
  TRACK 04 AUDIO
    TITLE "16:cjc020_7504"
    INDEX 01 00:01:28
  TRACK 05 AUDIO
    TITLE "0:"
    INDEX 01 00:02:45
  TRACK 06 AUDIO
    TITLE "17:cjc020_7505"
    INDEX 01 00:03:29
  TRACK 07 AUDIO
    TITLE "0:"
    INDEX 01 00:04:29
  TRACK 08 AUDIO
    TITLE "16:cjc020_7506"
    INDEX 01 00:04:38
  TRACK 09 AUDIO
    TITLE "0:"
    INDEX 01 00:05:57
  TRACK 10 AUDIO
    TITLE "17:cjc020_7507"
    INDEX 01 00:06:43
  TRACK 11 AUDIO
    TITLE "0:"
    INDEX 01 00:07:37
  TRACK 12 AUDIO
    TITLE "16:cjc020_7508"
    INDEX 01 00:07:43
  TRACK 13 AUDIO
    TITLE "0:"
    INDEX 01 00:08:28
  TRACK 14 AUDIO
    TITLE "17:cjc020_7509"
    INDEX 01 00:09:28
  TRACK 15 AUDIO
    TITLE "0:"
    INDEX 01 00:10:37
  TRACK 16 AUDIO
    TITLE "16:cjc020_7510"
    INDEX 01 00:10:43
  TRACK 17 AUDIO
    TITLE "0:"
    INDEX 01 00:11:52
  TRACK 18 AUDIO
    TITLE "17:cjc020_7511"
    INDEX 01 00:12:32
  TRACK 19 AUDIO
    TITLE "0:"
    INDEX 01 00:13:43
  TRACK 20 AUDIO
    TITLE "16:cjc020_7512"
    INDEX 01 00:13:45
  TRACK 21 AUDIO
    TITLE "0:"
    INDEX 01 00:14:58
  TRACK 22 AUDIO
    TITLE "17:cjc020_7513"
    INDEX 01 00:15:42
  TRACK 23 AUDIO
    TITLE "0:"
    INDEX 01 00:16:49
  TRACK 24 AUDIO
    TITLE "16:cjc020_7514"
    INDEX 01 00:16:57
  TRACK 25 AUDIO
    TITLE "0:"
    INDEX 01 00:17:65
  TRACK 26 AUDIO
    TITLE "17:cjc020_7515"
    INDEX 01 00:18:50
  TRACK 27 AUDIO
    TITLE "0:"
    INDEX 01 00:19:56
  TRACK 28 AUDIO
    TITLE "16:cjc020_7516"
    INDEX 01 00:19:60
  TRACK 29 AUDIO
    TITLE "0:"
    INDEX 01 00:21:04
  TRACK 30 AUDIO
    TITLE "17:cjc020_7517"
    INDEX 01 00:21:64
  TRACK 31 AUDIO
    TITLE "0:"
    INDEX 01 00:23:32
  TRACK 32 AUDIO
    TITLE "16:cjc020_7518"
    INDEX 01 00:23:36
  TRACK 33 AUDIO
    TITLE "0:"
    INDEX 01 00:24:55
  TRACK 34 AUDIO
    TITLE "17:cjc020_7519"
    INDEX 01 00:25:39
  TRACK 35 AUDIO
    TITLE "0:"
    INDEX 01 00:28:10
  TRACK 36 AUDIO
    TITLE "16:cjc020_7520"
    INDEX 01 00:28:15
  TRACK 37 AUDIO
    TITLE "0:"
    INDEX 01 00:29:38
  TRACK 38 AUDIO
    TITLE "17:cjc020_7521"
    INDEX 01 00:30:26
  TRACK 39 AUDIO
    TITLE "0:"
    INDEX 01 00:31:33
  TRACK 40 AUDIO
    TITLE "16:cjc020_7522"
    INDEX 01 00:31:39
  TRACK 41 AUDIO
    TITLE "0:"
    INDEX 01 00:32:43
  TRACK 42 AUDIO
    TITLE "17:cjc020_7523"
    INDEX 01 00:33:26
  TRACK 43 AUDIO
    TITLE "0:"
    INDEX 01 00:34:12
  TRACK 44 AUDIO
    TITLE "16:cjc020_7524"
    INDEX 01 00:34:22
  TRACK 45 AUDIO
    TITLE "0:"
    INDEX 01 00:35:17
  TRACK 46 AUDIO
    TITLE "17:cjc020_7525"
    INDEX 01 00:36:01
  TRACK 47 AUDIO
    TITLE "0:"
    INDEX 01 00:38:45
  TRACK 48 AUDIO
    TITLE "16:cjc020_7526"
    INDEX 01 00:38:47
  TRACK 49 AUDIO
    TITLE "0:"
    INDEX 01 00:39:47
  TRACK 50 AUDIO
    TITLE "17:cjc020_7527"
    INDEX 01 00:40:26
  TRACK 51 AUDIO
    TITLE "0:"
    INDEX 01 00:41:42
  TRACK 52 AUDIO
    TITLE "16:cjc020_7528"
    INDEX 01 00:41:44
  TRACK 53 AUDIO
    TITLE "0:"
    INDEX 01 00:43:17
  TRACK 54 AUDIO
    TITLE "17:cjc020_7529"
    INDEX 01 00:43:74
  TRACK 55 AUDIO
    TITLE "0:"
    INDEX 01 00:46:49
  TRACK 56 AUDIO
    TITLE "16:cjc020_7530"
    INDEX 01 00:46:64
  TRACK 57 AUDIO
    TITLE "0:"
    INDEX 01 00:47:62
  TRACK 58 AUDIO
    TITLE "17:cjc020_7531"
    INDEX 01 00:48:49
  TRACK 59 AUDIO
    TITLE "0:"
    INDEX 01 00:49:65
  TRACK 60 AUDIO
    TITLE "16:cjc020_7532"
    INDEX 01 00:49:70
  TRACK 61 AUDIO
    TITLE "0:"
    INDEX 01 00:51:09
  TRACK 62 AUDIO
    TITLE "17:cjc020_7533"
    INDEX 01 00:51:71
  TRACK 63 AUDIO
    TITLE "0:"
    INDEX 01 00:53:09
  TRACK 64 AUDIO
    TITLE "16:cjc020_7534"
    INDEX 01 00:53:13
  TRACK 65 AUDIO
    TITLE "0:"
    INDEX 01 00:54:32
  TRACK 66 AUDIO
    TITLE "17:cjc020_7535"
    INDEX 01 00:55:16
  TRACK 67 AUDIO
    TITLE "0:"
    INDEX 01 00:56:22
  TRACK 68 AUDIO
    TITLE "16:cjc020_7536"
    INDEX 01 00:56:31
  TRACK 69 AUDIO
    TITLE "0:"
    INDEX 01 00:57:41
